# xmcd
# Track frame offsets:
# 150
# 11726
# 28875
# 42766
# 59611
# 76312
# 93381
# 111099
# 129557
# 147459
# 164682
# 180706
# 201374
# 214989
#
# Disc length: 3064 seconds
# Revision: 0
# Processed by: cddbd v1.4PL0 Copyright (c) Steve Scherf et al.
# Submitted via: VisiTrax 2.9.5.180 - For more info visit www.synapsa.com
#
DISCID=d20bf60e
DTITLE=Michael Totaro - Puzzle of love
DYEAR=1999
DGENRE=
TTITLE0=Hearing voices
TTITLE1=Diamonds and gold
TTITLE2=Back in your arms again
TTITLE3=Leave it up to love
TTITLE4=Falling again
TTITLE5=How can the sun come up without her
TTITLE6=Just passin' through
TTITLE7=This old house
TTITLE8=I'll just watch this clock
TTITLE9=If I had you to love over again
TTITLE10=Where are you now
TTITLE11=One more believer in love
TTITLE12=Back home
TTITLE13=One love
EXTD=
EXTT0=
EXTT1=
EXTT2=
EXTT3=
EXTT4=
EXTT5=
EXTT6=
EXTT7=
EXTT8=
EXTT9=
EXTT10=
EXTT11=
EXTT12=
EXTT13=
PLAYORDER=
